<svg width="24" height="24" viewBox="0 0 24 24" fill="none" xmlns="http://www.w3.org/2000/svg">
<g id="category-svgrepo-com 1">
<path id="Vector" d="M7.24 2H5.34C3.15 2 2 3.15 2 5.33V7.23C2 9.41 3.15 10.56 5.33 10.56H7.23C9.41 10.56 10.56 9.41 10.56 7.23V5.33C10.57 3.15 9.42 2 7.24 2Z" fill="#B1B1B1"/>
<path id="Vector_2" opacity="0.4" d="M18.6695 2H16.7695C14.5895 2 13.4395 3.15 13.4395 5.33V7.23C13.4395 9.41 14.5895 10.56 16.7695 10.56H18.6695C20.8495 10.56 21.9995 9.41 21.9995 7.23V5.33C21.9995 3.15 20.8495 2 18.6695 2Z" fill="#B1B1B1"/>
<path id="Vector_3" d="M18.6695 13.4307H16.7695C14.5895 13.4307 13.4395 14.5807 13.4395 16.7607V18.6607C13.4395 20.8407 14.5895 21.9907 16.7695 21.9907H18.6695C20.8495 21.9907 21.9995 20.8407 21.9995 18.6607V16.7607C21.9995 14.5807 20.8495 13.4307 18.6695 13.4307Z" fill="#B1B1B1"/>
<path id="Vector_4" opacity="0.4" d="M7.24 13.4307H5.34C3.15 13.4307 2 14.5807 2 16.7607V18.6607C2 20.8507 3.15 22.0007 5.33 22.0007H7.23C9.41 22.0007 10.56 20.8507 10.56 18.6707V16.7707C10.57 14.5807 9.42 13.4307 7.24 13.4307Z" fill="#B1B1B1"/>
</g>
</svg>
