<svg width="25" height="24" viewBox="0 0 25 24" fill="none" xmlns="http://www.w3.org/2000/svg">
<g id="FiMenu">
<path id="Vector (Stroke)" fill-rule="evenodd" clip-rule="evenodd" d="M2.5 12C2.5 11.4477 2.94772 11 3.5 11H21.5C22.0523 11 22.5 11.4477 22.5 12C22.5 12.5523 22.0523 13 21.5 13H3.5C2.94772 13 2.5 12.5523 2.5 12Z" fill="#B1B1B1"/>
<path id="Vector (Stroke)_2" fill-rule="evenodd" clip-rule="evenodd" d="M2.5 6C2.5 5.44772 2.94772 5 3.5 5H21.5C22.0523 5 22.5 5.44772 22.5 6C22.5 6.55228 22.0523 7 21.5 7H3.5C2.94772 7 2.5 6.55228 2.5 6Z" fill="#B1B1B1"/>
<path id="Vector (Stroke)_3" fill-rule="evenodd" clip-rule="evenodd" d="M2.5 18C2.5 17.4477 2.94772 17 3.5 17H21.5C22.0523 17 22.5 17.4477 22.5 18C22.5 18.5523 22.0523 19 21.5 19H3.5C2.94772 19 2.5 18.5523 2.5 18Z" fill="#B1B1B1"/>
</g>
</svg>
