<svg width="20" height="19" viewBox="0 0 20 19" fill="none" xmlns="http://www.w3.org/2000/svg">
<g id="FiSearch">
<path id="Vector (Stroke)" fill-rule="evenodd" clip-rule="evenodd" d="M9.23642 3.05818C6.28487 3.05818 3.89216 5.45088 3.89216 8.40244C3.89216 11.354 6.28487 13.7467 9.23642 13.7467C12.188 13.7467 14.5807 11.354 14.5807 8.40244C14.5807 5.45088 12.188 3.05818 9.23642 3.05818ZM2.36523 8.40244C2.36523 4.60758 5.44157 1.53125 9.23642 1.53125C13.0313 1.53125 16.1076 4.60758 16.1076 8.40244C16.1076 12.1973 13.0313 15.2736 9.23642 15.2736C5.44157 15.2736 2.36523 12.1973 2.36523 8.40244Z" fill="#B1B1B1"/>
<path id="Vector (Stroke)_2" fill-rule="evenodd" clip-rule="evenodd" d="M13.0107 12.1767C13.3089 11.8786 13.7923 11.8786 14.0904 12.1767L17.4115 15.4978C17.7097 15.796 17.7097 16.2794 17.4115 16.5775C17.1133 16.8757 16.6299 16.8757 16.3318 16.5775L13.0107 13.2564C12.7126 12.9583 12.7126 12.4749 13.0107 12.1767Z" fill="#B1B1B1"/>
</g>
</svg>
